<svg width="406" height="76" viewBox="0 0 406 76" fill="none" xmlns="http://www.w3.org/2000/svg">
<path d="M176.8 17.6333H164.972L164.589 20.2898H168.417L166.771 28.2209H170.943L172.589 20.2898H176.417L176.8 17.6333Z" fill="#9E329E"/>
<path d="M189.278 18.2877C187.871 17.4847 186.259 17.1228 184.646 17.2482C183.355 17.2235 182.067 17.379 180.819 17.7102C179.916 17.9585 179.079 18.4057 178.369 19.0192C177.637 19.6695 177.072 20.4885 176.723 21.4062C176.298 22.3769 176.076 23.4255 176.072 24.4863C175.947 25.044 175.947 25.6226 176.072 26.1803C176.328 26.7132 176.694 27.1855 177.144 27.5663C178.62 28.368 180.294 28.7286 181.967 28.6058C183.258 28.629 184.546 28.4736 185.795 28.1438C186.725 27.9374 187.6 27.5302 188.359 26.9503C189.091 26.3 189.656 25.481 190.005 24.5633C190.415 23.5876 190.636 22.5422 190.656 21.4832C190.682 20.9026 190.577 20.3234 190.35 19.7892C190.119 19.2086 189.751 18.6932 189.278 18.2877ZM185.45 24.6403C185.157 25.0715 184.745 25.4062 184.264 25.6028C183.799 25.8256 183.283 25.9187 182.771 25.8723C181.24 25.8723 180.474 25.2178 180.474 23.9088C180.437 23.4861 180.437 23.0609 180.474 22.6383C180.474 22.2918 180.704 21.9452 180.857 21.5987C181.013 21.2935 181.205 21.0089 181.431 20.7517C181.702 20.4696 182.028 20.2468 182.388 20.0972C182.851 19.9131 183.345 19.8216 183.843 19.8277C185.374 19.8277 186.139 20.4822 186.139 21.8297C186.172 22.8228 185.905 23.8025 185.374 24.6403H185.45Z" fill="#9E329E"/>
<path d="M4.59319 74.4214L2.14349 68.9543H0V75.9999H1.37796V70.1864L3.82766 75.9999H5.09079L7.65532 70.1864V75.9999H9.03328V68.9543H7.00462L4.59319 74.4214Z" fill="#9E329E"/>
<path d="M35.5972 73.1509H40.0373V72.0344H35.5972V70.0709H40.2287V68.9543H34.1427V75.9999H40.3052V74.8834H35.5972V73.1509Z" fill="#9E329E"/>
<path d="M64.3047 70.0709H66.9075V75.9999H68.4003V70.0709H71.0031V68.9543H64.3047V70.0709Z" fill="#9E329E"/>
<path d="M97.2608 68.9543L94.1604 75.9999H95.6915L96.4187 74.2674H99.7105L100.438 75.9999H102.084L98.9833 68.9543H97.2608ZM96.9163 73.1509L98.1412 70.1864L99.5191 73.1509H96.9163Z" fill="#9E329E"/>
<path d="M154.867 68.9543H153.413V75.9999H159.116V74.8449H154.867V68.9543Z" fill="#9E329E"/>
<path d="M185.029 73.1509H189.431V72.0344H185.029V70.0709H189.622V68.9543H183.728V75.9999H189.89V74.8834H185.029V73.1509Z" fill="#9E329E"/>
<path d="M216.722 68.9543L213.583 75.9999H215.191L215.918 74.2674H219.21L219.976 75.9999H221.583L218.483 68.9543H216.722ZM216.378 73.1509L217.603 70.1864L218.827 73.1509H216.378Z" fill="#9E329E"/>
<path d="M251.439 72.5734C251.798 72.4848 252.112 72.2653 252.319 71.9574C252.53 71.6386 252.637 71.2619 252.626 70.8794C252.626 69.8014 252.051 68.9543 250.252 68.9543H245.812V75.9999H247.305V73.1509H249.755C250.827 73.1509 250.98 73.8439 250.98 74.8449C250.903 75.2001 250.903 75.5677 250.98 75.9229H252.626C252.389 75.46 252.283 74.9407 252.319 74.4214C252.626 73.4974 252.281 72.7659 251.439 72.5734ZM249.831 72.1114H247.305V70.0709H249.831C250.597 70.0709 251.056 70.3404 251.056 71.0719C251.056 71.8034 250.635 72.1114 249.831 72.1114Z" fill="#9E329E"/>
<path d="M283.247 74.2674L279.075 68.9543H277.391V75.9999H278.807V70.7254L283.247 75.9999H284.893V68.9543H283.247V74.2674Z" fill="#9E329E"/>
<path d="M339.092 68.9543L335.954 75.9999H337.561L338.289 74.2674H341.58L342.308 75.9999H343.915L340.662 68.9543H339.092ZM338.71 73.1509L339.935 70.1864L341.159 73.1509H338.71Z" fill="#9E329E"/>
<path d="M372.47 68.9545H368.144V76.0001H369.637V73.1511H372.508C372.796 73.2278 373.1 73.2278 373.388 73.1511C373.671 73.0722 373.923 72.9115 374.116 72.6891C374.344 72.4952 374.516 72.2424 374.613 71.9576C374.671 71.6782 374.671 71.3899 374.613 71.1105C374.689 70.8204 374.689 70.5152 374.613 70.225C374.517 69.9288 374.346 69.6632 374.116 69.455C373.893 69.2513 373.633 69.0942 373.35 68.993C373.061 68.9276 372.763 68.9146 372.47 68.9545ZM372.01 72.2271H369.637V70.071H372.087C372.661 70.071 373.312 70.2635 373.312 71.149C373.312 72.0346 372.852 72.2271 372.01 72.2271Z" fill="#9E329E"/>
<path d="M403.703 68.9543H399.416V75.9999H400.871V73.1509H403.742C404.033 73.1974 404.331 73.1728 404.611 73.0789C404.891 72.9851 405.144 72.8249 405.349 72.6119C405.558 72.3988 405.723 72.1462 405.835 71.8687C405.947 71.5912 406.003 71.2942 406 70.9949C406.028 70.6904 405.987 70.3835 405.881 70.097C405.775 69.8104 405.606 69.5515 405.388 69.3393C405.165 69.1356 404.905 68.9786 404.622 68.8773C404.314 68.8452 404.002 68.8713 403.703 68.9543ZM403.244 72.2269H400.871V70.0708H403.321C403.895 70.0708 404.545 70.2633 404.545 71.1489C404.545 72.0344 404.086 72.2269 403.244 72.2269Z" fill="#9E329E"/>
<path d="M97.2991 39.1164V6.19849H86.352C80.0205 6.20867 73.9513 8.74306 69.4742 13.2463C64.9972 17.7495 62.4775 23.8543 62.4674 30.2228V41.2724H97.2991V39.1164ZM88.2658 32.1478H71.539V30.2228C71.5828 26.2938 73.1482 22.5369 75.9025 19.7507C78.6578 16.9862 82.3839 15.4234 86.2755 15.4001H88.0362L88.2658 32.1478Z" fill="#9E329E"/>
<path d="M132.514 32.1478H130.638C126.719 32.1377 122.963 30.57 120.188 27.7862C117.414 25.0025 115.845 21.2285 115.825 17.2866V6.19849H106.753V17.2866C106.753 20.4397 107.371 23.5619 108.572 26.4745C109.773 29.3871 111.533 32.033 113.751 34.2608C115.97 36.4886 118.603 38.2546 121.501 39.4577C124.398 40.6608 127.503 41.2775 130.638 41.2724H132.514V47.471C135.062 47.0192 137.371 45.68 139.037 43.688C140.702 41.696 141.618 39.1782 141.623 36.5754V6.19849H132.514V32.1478Z" fill="#9E329E"/>
<path d="M35.5207 6.19849H0.688977V36.5369C0.685167 39.1288 1.59367 41.6384 3.25351 43.621C4.91083 45.6271 7.21209 46.9887 9.76053 47.471V41.2339H11.6744C17.9867 41.2208 24.0389 38.7028 28.5161 34.2269C32.9625 29.7181 35.4769 23.6372 35.5207 17.2866V6.19849ZM26.4874 17.2866C26.4672 21.2285 24.8989 25.0025 22.1242 27.7862C19.3494 30.57 15.5933 32.1377 11.6744 32.1478H9.76053V15.4001H26.4874V17.2866Z" fill="#9E329E"/>
<path d="M44.4009 0V41.1955H53.5873V10.8956C53.5361 8.29818 52.5735 5.80257 50.8696 3.85005C49.2327 1.83901 46.9413 0.475217 44.4009 0V0Z" fill="#9E329E"/>
<path d="M404.928 41.2724V30.2613C404.945 23.9058 402.486 17.7967 398.077 13.2441C395.891 11.0102 393.29 9.23096 390.421 8.00801C387.518 6.81389 384.41 6.1993 381.273 6.19849H370.097V41.2724H379.13V15.4001H381.044C384.956 15.4101 388.706 16.9726 391.48 19.748C394.254 22.5235 395.826 26.2877 395.857 30.2228V41.3494L404.928 41.2724Z" fill="#9E329E"/>
<path d="M336.528 30.2228V41.2724H345.6V30.2228C345.63 26.2877 347.203 22.5235 349.976 19.748C352.75 16.9726 356.5 15.4101 360.413 15.4001V6.19849C354.081 6.20867 348.012 8.74306 343.535 13.2463C339.058 17.7495 336.538 23.8543 336.528 30.2228Z" fill="#9E329E"/>
<path d="M281.639 41.1954V32.1478H259.362C258.347 32.1478 257.374 31.7422 256.656 31.0202C255.938 30.2981 255.535 29.3189 255.535 28.2978V19.2502C255.53 18.7372 255.621 18.228 255.803 17.7486C255.934 17.2745 256.155 16.8301 256.453 16.4396C256.807 16.0673 257.239 15.7781 257.716 15.5926C258.239 15.3866 258.806 15.3203 259.362 15.4001H281.639V6.19849H259.056C255.675 6.26931 252.459 7.68053 250.108 10.125C247.756 12.5694 246.46 15.8491 246.501 19.2502V28.2593C246.501 31.644 247.819 34.8941 250.173 37.3125C252.527 39.7309 255.73 41.1249 259.094 41.1954H281.639Z" fill="#9E329E"/>
<path d="M262.654 23.6778C262.65 24.578 262.913 25.459 263.411 26.207C263.91 26.955 264.619 27.5358 265.448 27.8743C266.272 28.2139 267.176 28.3075 268.051 28.1438C268.912 27.9454 269.704 27.5201 270.348 26.9118C271.03 26.2784 271.521 25.4645 271.764 24.5633C271.922 23.6827 271.829 22.7749 271.496 21.9452C271.147 21.1344 270.576 20.4401 269.85 19.9432C269.053 19.4311 268.114 19.1883 267.171 19.2502C265.979 19.2501 264.836 19.7235 263.99 20.5672C263.145 21.4109 262.664 22.5565 262.654 23.7548V23.6778Z" fill="#9E329E"/>
<path d="M291.591 30.2228V41.2725H326.423V6.19852H315.476C312.338 6.19345 309.23 6.81139 306.33 8.01693C303.43 9.22247 300.795 10.9919 298.576 13.2238C296.357 15.4556 294.598 18.1061 293.399 21.0231C292.201 23.9402 291.586 27.0665 291.591 30.2228ZM317.39 32.1479H300.663V30.2228C300.693 26.2877 302.266 22.5235 305.039 19.7481C307.813 16.9726 311.563 15.4102 315.476 15.4001H317.39V32.1479Z" fill="#9E329E"/>
<path d="M221.239 17.2867V6.23706H212.129V17.2867C212.149 23.6552 214.679 29.7559 219.163 34.2519C223.647 38.7479 229.72 41.2726 236.052 41.2725H237.927V32.1479H236.052C232.133 32.1378 228.377 30.57 225.602 27.7863C222.827 25.0026 221.259 21.2285 221.239 17.2867Z" fill="#9E329E"/>
</svg>
